# xmcd
#
# Track frame offsets: 
#        150
#        16793
#        28102
#        41366
#        53098
#        66496
#        86112
#        98494
#        110524
#        120611
#
# Disc length: 1783 seconds
#
# Revision: 0
# Processed by: cddbd v1.5.2PL0 Copyright (c) Steve Scherf et al.
# Submitted via: ExactAudioCopy v0.99pb4
#
DISCID=7a06f50a
DTITLE=The Telepathic Butterflies - Wow and Flutter!
DYEAR=2009
DGENRE=Indie
TTITLE0=Circle Man
TTITLE1=Between The Lines
TTITLE2=Lilacs
TTITLE3=Like Esmé
TTITLE4=A Call to Arms
TTITLE5=Aloha!
TTITLE6=Elegy
TTITLE7=The Dillinger Plan
TTITLE8=The Sympathetic Sort
TTITLE9=Cheerleader
EXTD=
EXTT0=
EXTT1=
EXTT2=
EXTT3=
EXTT4=
EXTT5=
EXTT6=
EXTT7=
EXTT8=
EXTT9=
PLAYORDER=
